# xmcd
#
# Track frame offsets: 
#        150
#        21621
#        36585
#        52405
#        64406
#        81567
#        97681
#        113486
#        130558
#        145664
#        162082
#
# Disc length: 2344 seconds
#
# Revision: 0
# Processed by: cddbd v1.5.2PL0 Copyright (c) Steve Scherf et al.
# Submitted via: ExactAudioCopyFreeDBPlugin 1.0
#
DISCID=9909260b
DTITLE=Various Artist - Life Music
DYEAR=2013
DGENRE=Gospel
TTITLE0=Booth Brothers - What Salvation's Done For Me
TTITLE1=Legacy Five - I'm Still Amazed
TTITLE2=Wilburn and Wilburn - Jesus Will
TTITLE3=Blackwood Brothers - Goodbye Egypt (Hello Canaanland)
TTITLE4=Crabb, Adam - He's Going Places
TTITLE5=Perrys - When He Spoke
TTITLE6=Mark Trammell Quartet - I Want To Know
TTITLE7=Assurance, Brian Free and - Nothing But Love
TTITLE8=Sisters - I Can't Keep From Singing
TTITLE9=New River, Karen Peck and - Good Things Are Happening
TTITLE10=Chigger Hill Boys and Terri - Are You Prayin' Hard?
EXTD=
EXTT0=
EXTT1=
EXTT2=
EXTT3=
EXTT4=
EXTT5=
EXTT6=
EXTT7=
EXTT8=
EXTT9=
EXTT10=
PLAYORDER=
